<svg xmlns="http://www.w3.org/2000/svg" viewBox="0 0 347 400"><path fill="currentColor" d="M53.5 95 172 149l118.5-50.3.6 153.2-28.4-17.3-.5-84-67.1 28.4.5 48.3-23.6 21-21.5-20 .5-49.3-67.7-31.5-.5 87.6L53 249.8l.6-154.7Zm0 170 85-45.6.4 16.3 17.3 16.8L95.5 286l-.5 55.1-42.5-34.6 1-41.5ZM207 233l-21 19 60.9 33.5 2.6 55.6 40.4-31 .5-42.4-83.4-49.3V233Zm-61.3 46.7h50.8l19.2 9.2-.3 9.2-86.5-1 .2-9.2 16.6-8.2ZM129 307.8 119 350l52.5 44.1 54.8-43.8-10.5-42-86.8-.5Zm182-174V252l28.8-24.4-.5-73.7-28.3-20Zm-277-.3L6.1 152.9l-.5 73.1L33 251l1-117.3Zm36.2-46.3 30 14.4-.6-57.7-29.4 24.8v18.5Zm41.5 18 60.3 27.9 60.8-25.2-.9-69.4-60.2-33.2-60 31.3v68.7Zm133.5-2L277.9 89l-.2-19.1-32.8-24.4.3 57.7Zm-73.5-74.6L197 44.2l-.7 59.1-24.5 12.6-24.8-13.5.2-59.3 24.4-14.5Z"/></svg>