<svg xmlns="http://www.w3.org/2000/svg" viewBox="0 0 400 400"><path fill="currentColor" d="M149.3 130.8c-2.6-2.4-5.1-4.8-7.5-7.3-18.2-18.5-35.6-36.7-41.6-62.1C77.7 69.2 50 79.7 34 97.4.2 134.6 5.4 204.8 27.8 245.7l28.7-47.5c22-40.6 62.6-49.6 91.5-39.2 7.6 2.8 14.2 11.4 20.3 16.5a90.8 90.8 0 0 0-49.3-4.9c-16.3 2.3-32.6 8.7-41.6 23.9 60-12.3 39.7-13.8 112-3.7-8.6-39.9-14.7-30.8-40-59.8 39.2 16 54 29.1 49.6 75.2-41.5-16.5-60.8-9.6-80.7-10a156 156 0 0 1 9.1 40.7c3.2 43.3-34.4 67.3-64.5 87.8 37.5 11.4 58 11.3 96.6 4.4l-48.3 35c69.6 0 69.5 4 131.7-30.6l-30.7 43.8a134.4 134.4 0 0 0 74.6-31.6c13.5-11.3 22.3-28.3 39.5-16.6 13.3-21.5 19.3-31.6 22-57l13.1 17.5c18.7-28.3 11.3-52.8 8.8-83.4l17.6 8.8c-.7-31.1-4.4-46.5-17.6-74.6h13.2c-12.9-40.3-50.3-71-87.8-87.8l17.5-22C253.7 28 221 11.3 159.5 34.3c-13.2 5-39.3 12.2-42 27.8-3.4 18.8 22.2 53.3 31.8 68.8Zm103-76.3-70.2 22c3.4 15 1.3 38.7-21 31.3-9.6-3.1-21.3-22.8-27.3-31.4 63-10.1 41.9-22 118.5-22Zm-92.2 28c-7.6 13 4 15.1 8.2 12.3 4.2-2.8 6.7-14.3-8.2-12.3ZM103 95.3c-6.5 19.2-15.2 18.2-30.4 22 5.9-16.8 9.8-23.1 30.4-22Zm212.3 94.1c-5.1 20-9.7 49.3-22.4 66.6-6.6 8.9-16.4 14.9-22.8 2.9-13 15-15 25.4-34.4 18-8.2 15.5-14.7 17.8-31.1 23.6l3.7-26.6c-9 7-46 29.5-46 29.5l16.6-62.6 3 37.5 34.6-22.3 4 17.7 27.3-26.1 2.4 14.5 19.5-32 13.2 17.5 17.6-52.7 14.8-5.5ZM163.9 284"/></svg>