<svg xmlns="http://www.w3.org/2000/svg" viewBox="0 0 412 400"><path fill="currentColor" d="M287 12.3c1.8 7.3 4.6 13 2.4 20.5-3.8 13.5-15.6 17.3-19 28.8-2.8 9.3 2.5 15 3.1 22.5l-4.3 24.6c.3 5.4 2.2 11.1 0 16l-10.6 11.1c-4.3 5.5-6.9 11.4-14.7 13-7.8 1.5-13.2-4.5-10-11 2.7-5.5 8.7-7.2 14.1-8.6-2.7-15.5-1.4-24.5 16.4-26.6l-12.3-14.4c-12-18.4-6.8-28.2-4-47.2-9.3 2.1-14.9 4.8-24.7 3.2-6.4-1.1-19.6-6.4-24.6-5.4-6.6 1.4-9.8 7.7-15 10-5.2 2.5-13-.5-18.6 5.6-4.2 4.6-4.5 18 1.7 21.2 6 3 7.7-4 21.7-1.8V78c-13.7 3.5-19.2 2.8-22.6 18.4 10.6-6.6 10.2-7.4 22.6-6.1l-10.3 12.3v4c8 2 6.5 1.5 14.4 1.3 10.3-.2 15.2 5.7 9.2 11.7-8.3 8.5-20.7-.1-29.7 15.8 5.2 0 15.7 1.6 12 9.7-1.1 2.3-3.6 4-6 4.7-10.3 3-18-9.7-24.6-15.7-2.5-2.3-6.3-4.8-8.2-7.7-2.8-5.2-.2-12 0-17.7 0-10.9-4.6-15.8-4.2-22.5.3-6.3 5.3-11.6 3.7-20.6-1.9-10.8-10.8-14.4-16.4-22.6-6.1-9-5.9-16.6-3.5-26.6-16.1 3.5-20.2 18-22.5 32.8-18.3 0-42.6 0-59.5-7.5l-26.6-17C19.7 48.1 29.9 60 53.3 66c8.9 2.3 21.9 0 27.6 8.2 6.8 9.7-6.4 13.4-13.3 14.4-23.5 3.6-32.3-7.3-51.2-12.8 5.1 21.5 17.6 30.7 39 30.8 8.8 0 22.8-1.4 29.6 5.2 8.7 8.4-8.3 11.2-13.3 11.8-22.2 2.8-30 0-51.2-4.7 12.4 31 44.9 17.5 59.4 19 4.4.4 8.3 2 12.3 3.5v4.1l-42.7 16-20.8 2.5c22 29.1 48.3 4.6 75.8 2-6.1 11.8-34 28.8-47.1 31.8-6.4 1.5-15.8 1-22.5 1 4.2 7.4 8.3 9.4 16.3 12 33.1 10.3 39-22.3 71.8-20.1-3 11.4-9.6 14.8-18.5 21.8C79.1 233 87.3 228.3 57.4 236v4.1c21.1 6.8 37 5.8 55.3-7.7 7.3-5.3 18.5-17.5 26.7-19.4 11.6-2.6 14.1 9.9 24.7 9.7 3.6 0 31-9.1 45-9.1l45 8c9.8-.3 14-13 25.3-9.6 7.9 2.4 21.8 16.5 30.1 21.7 13 8.2 42 13.8 51.3-1.8-29.5-6-24.6-5.6-47.2-22.8-9.4-7.1-14.9-8.4-18.4-20.2 3.6-.3 7.2-.7 10.8 0 18.3 4 28.2 23.2 52.7 20.6 5.7-.6 9.4-1.5 14.3-4.6 4.9-3 6.9-5.6 10.3-10l-25.2-2a99.8 99.8 0 0 1-46.5-28.7c25.9 2.6 58.9 25 75.8-6.2-19.2 0-48.7-5-61.5-20.5 36-4.7 52.6 6.7 69.7-22.5-17.1 1.5-33.7 8-51.2 5.5-4.7-.6-18.7-3.1-13.1-10.8 7-9.8 26-4.6 35.6-5.4 18-1.5 27-16.4 30.8-32.4C385 74.4 384.3 78 373 82a53 53 0 0 1-33.2 1.7c-6.3-2.3-10.4-7.3-5-13.3 5.8-6.5 21.6-6 30-8.4 20.4-6 29.7-21 30.7-41.5L373 36.2c-9.3 5.1-42.8 12-53.1 10.6-10.3-1.4-9.8-10.6-14-18-5-9.6-9.2-12.5-19-16.5Zm-75.3 56.3-2.6 1.1c-3.8-1.4-7.4-2.2-9-6.6-2.2-6.4 4-13.6 10.7-11 5.4 2 10.4 9.8.9 16.5Zm-97 206.3c6.8 4.8 4.6 8.6 6.2 16.4l12.3-2v12.2h10c-.6 4-2 8 0 12 2.9 9.2 24.1 17.6 33 20.5 23.9 7.6 50.8 6 73.9-3.5 6.2-2.5 18.8-7 22.2-13.2 1.3-3.5.1-13 0-17.8l6.5 2v-12.3h16.4l-2-14.3h12.2c-6.4-16.5-22-27.8-36.9-36.5a112.2 112.2 0 0 0-123 5 84.9 84.9 0 0 0-30.7 31.5Zm63.6-20.5 4.1 8c11.4 21.2 22.3-3.1 24-4.8 2.6-2.4 3.8-2.3 6.8-3.2 2.9 6.6 9.6 22.8 19.5 15 2.7-2.1 7.2-11.5 9.2-15l15 17 24 7.6v4c-24.8 6.2-21.6-.4-32.9 24.7H242l-8.2-18.5c-4.3 1.2-9.6 2.2-13 5.3-6.6 6.4-2.2 9.4-13.7 13.2-2.5-6.2-10.6-23.2-20-14.7-2.3 2.2-5.3 11.3-6.6 14.7-13.8-4.4-8-10.3-16.9-17-9.4-7-20.5-.1-28.2-11.7l28.1-7.4 15-17.2Zm121 26.6 2 14.4-10.2-2-2 14.3-8.2-2c-1.1 5.3-1.5 6.8 0 12.2 2.1 7 9.5 18.5 18.1 16.5 4-.9 6.4-4.7 9.4-7.1 3.6-3 7-3.6 9.3-6.4 1.6-2 2.8-6.5 4-9.1 5.9-12.8 8.3-21.7-8.1-28.9-4.8-2-9.3-1.8-14.3-1.9Zm-203 30.8c-1.2 9.4-.2 13.7 10.3 12.3 10 24 25.9 3.5 28.7-14.4H125v-12.3h-14.3l2-14.3c-22.3 3.2-34.8 19.2-16.4 28.7Zm137.4 32.8c7 20 13.8 8 39 22.6-.2-3.4 0-7-1.3-10.2-3-7.7-15.2-15.5-23.4-15.6-4.1 0-10.2 2.1-14.3 3.2Zm-86.1 20.5 14.3-4.4c12.2-2.9 17.7-.6 22.6-14-17.1-7.1-34.6-1.6-37 18.4Zm45-18.4c-2.3 22.3-13.4 18.2-24.5 39 18.7-3 21.8-5.3 32.8-20.6 3 9.5 3.6 19.2 12.3 24.6 1.3-10.2.6-17 10.2-22.5 4.7 15.6 14 16.4 28.7 18.4-9-23.1-20.5-12.8-24.6-39h-34.8Z"/></svg>