<svg xmlns="http://www.w3.org/2000/svg" viewBox="0 0 400 400"><path fill="currentColor" d="m82 67-12 35c-1 2.7-4.5 11.9-4.4 14 .3 4 6.6 9.1 9.4 12l24 26c2.3 2.3 6.8 7.5 10 7.8 3 .2 15.8-7 19-8.8l1.3 15 2.7 14v114l29-46 20 55 9.8-24 13.2-36h2l22 43 12-37 23 39 1-16 1-15v-16l1-15v-14l1-12v-16l39-4.7 32-4.3-8.2-44c-1-4.6-2-14.3-5.1-17.5-7-7.2-19.4-3-26.3-11.5-4.6-5.8-9.3-29.3-13.1-33.4-1.7-1.8-15-7.7-18.3-9.3l-20-9.6-25-12.1-23-11.3-12-5.6c-3.4-1.7-11.4-6.5-15-5.8-3.1.7-18.3 12.4-22 15.1l-35 25.4c-6.9 5-10.1 9.5-19 9.6H82Zm101 97-3.8 41-2.2 20c-3.1-2.4-6-5.3-7.7-9-1.3-2.7-2-10.7-2.4-14l-4.2-33.9c-1.2-3.9-6.4-5.8-9.7-8.1-4.9-3.5-9.2-8-12.4-13A40.5 40.5 0 0 1 168 85l2-20c.1-2 0-5.5 2.4-6.3 3.2-1 4.3 3 4.8 5.3 1 4.5 2.1 17.5 5.2 20.2 1.7 1.4 7.1 3 9.6 4.1a34 34 0 0 1 13.8 11.7c15.5 22.4 6 58.8-22.8 64Zm104-41v26h-15l-15-1h-23l-1-16 54-9Zm-69 36 15 42.5-18-7.5-19.5 2.5 11.2-20.5 11.3-17ZM96 182l-19.4 86c-2 8.8-6.5 24.7-6.6 33v34c0 2-.1 5 .6 7 1.9 5 11.8 12.3 16.4 15.3a166.3 166.3 0 0 0 59 22.4c46.2 8.6 102.5 5.8 146-12.8 10.3-4.4 17.8-8.6 27-15 8.6-5.8 13-8 13-18.9v-30c-.1-8.8-5.3-19.5-8.3-28l-11.3-31c-2-5.2-3.5-11.3-6.4-16l-5.6 52-7.8 14-16.6 29-20-17-21 30-16.7-32-9.3-16-11.3 36-9.7 34c-4-4-10.3-19.1-12.9-25L158 296c-6.7 3.2-12.4 10.5-17.3 16L126 327l-6.8-34-11.8-58-7.5-37-3.9-16Z"/></svg>