<svg xmlns="http://www.w3.org/2000/svg" viewBox="0 0 400 400"><path fill="currentColor" d="m96 129.3 210 2.7-110.5 170.6L96 129.3Zm243.3 135.9c-7.4 5.1-1.4 12.5 4.3 10.2 5-2 5.3-11.7-4.3-10.2Zm-147.6 77.6c-7.3 5.1-1.3 12.4 4.4 10.2 5-2 5.3-11.7-4.4-10.2Zm5-311.6c-7.5 5.2-1.4 12.5 4.3 10.3 5-2 5.3-11.7-4.4-10.3ZM57.5 107.7c-7.4 5.2-1.4 12.5 4.3 10.2 5-2 5.3-11.7-4.3-10.2ZM177 89.4h-29.8l1.8-5.2-13.7-19.4 24.7 3 7-13L154.6 32l25.9 3.1 18.3-27L219.5 35l30.2-4.3-18 21.5 8 14.3 29.8-3.4-19.2 22.5 2.4 4.5h-30.4l-23-34.5-22.2 33.9Zm138.1 100.9 6.8 11.5 29-4-16.9 23.7 8.9 13.3 26.8-4.5-17 24.5 20 34.9h-41.7l-11 25.2-10.3-25.2-15.9-.3-10.4 25.5-13.7-25.3-15.5-.2 18.3-29.7 51.2.6-25-42.7 16.4-27.3Zm-231.2.8-7.3 9.7-28-6.6 17 24.9-7.8 12.5-29-5.7 17.9 25.3-26 38.8h45l11.8 24.7 11.5-24.2h13.3l12.5 24.9 11.3-25.8H143l-17.5-28.9h-51l25.3-44L84 191ZM21.1 73.9l32.1-.8 137 238.8-14.6 21.4L21.1 74Zm195.2 277.6 20.3 33.1-35 2.5-2.8-5.7 17.5-29.9Zm-61.4 30.3 161-249.7 28 .4-160.6 258.2-28.4-8.9ZM75.6 96.6l14.6 24.6 301.7 4.9-10.6-28.7-305.7-.8Zm-48.4 1.2-19-.4 15 27 20.3-.4-16.3-26.2ZM337.4 90l8.1-16.2 29.7 1.3-9.3 15.3-28.5-.4ZM53 268.1c.2-7.4 11.4-7.5 11.3.2 0 7.7-11.2 7.6-11.3-.2Zm280-161.4c5-5.3 14.3 2 8.8 8.5-5.5 6-14.8-2.2-8.8-8.5Z"/></svg>